Coordinates
version=1
nRows=29
nColumns=22
inDegrees=yes

Units are S.I. units (second, meters, Newtons, ...)
If the header above contains a line with 'inDegrees', this indicates whether rotational values are in degrees (yes) or radians (no).

endheader
time	pelvis_tilt	pelvis_list	pelvis_rotation	pelvis_tx	pelvis_ty	pelvis_tz	hip_flexion_r	hip_adduction_r	hip_rotation_r	knee_angle_r	ankle_angle_r	subtalar_angle_r	hip_flexion_l	hip_adduction_l	hip_rotation_l	knee_angle_l	ankle_angle_l	subtalar_angle_l	lumbar_extension	lumbar_bending	lumbar_rotation
      3.94000000	     -8.19747138	     -1.49590157	     -2.16536401	     -0.59092543	      0.93534626	     -0.22373589	      1.71000710	      1.61693911	      2.24224199	    -29.13973270	     10.98705138	      3.49684055	     29.97899424	     -2.21782439	     -4.76919436	    -24.48464633	      3.23943981	     -1.21609226	     -6.28406504	     -1.68331063	      3.46847140
      3.95000000	     -8.19973228	     -1.40876415	     -2.37399005	     -0.59993032	      0.93454900	     -0.22111391	      1.44673734	      1.63058026	      2.24474561	    -27.91318066	     12.23892820	      3.40266805	     30.40949272	     -2.40308217	     -4.88700733	    -24.26499439	      3.22018542	     -0.40565521	     -6.42242971	     -1.79958878	      3.70173911
      3.96000000	     -8.19645438	     -1.35057614	     -2.56126919	     -0.60899633	      0.93382224	     -0.21851535	      1.30341592	      1.68515692	      2.18435241	    -26.86082247	     13.41131389	      3.17248605	     30.80148146	     -2.60147458	     -4.96654000	    -23.99050195	      3.33756891	      0.51545947	     -6.57388958	     -1.87640885	      3.89443030
      3.97000000	     -8.19126537	     -1.34062279	     -2.71255520	     -0.61810626	      0.93318607	     -0.21596886	      1.26063846	      1.80363488	      2.05317456	    -25.94417531	     14.45901572	      2.84570442	     31.15655854	     -2.82319216	     -4.99451869	    -23.65333506	      3.57356690	      1.54925326	     -6.73342587	     -1.88777447	      4.03062958
      3.98000000	     -8.18920820	     -1.34743265	     -2.82510225	     -0.62720304	      0.93262466	     -0.21350903	      1.30450272	      1.94752070	      1.84412799	    -25.13833547	     15.39856897	      2.47426960	     31.47117477	     -3.03187453	     -4.98787697	    -23.24724577	      3.95774192	      2.61221713	     -6.88689773	     -1.86920551	      4.11368668
      3.99000000	     -8.19355294	     -1.37439067	     -2.89008817	     -0.63626396	      0.93213772	     -0.21114915	      1.41957870	      2.12086249	      1.55943032	    -24.41944267	     16.22208702	      2.08519873	     31.74607346	     -3.22861865	     -4.95331524	    -22.76644837	      4.47689123	      3.67575844	     -7.02891700	     -1.81714966	      4.14207027
      4.00000000	     -8.20608439	     -1.41329382	     -2.91145370	     -0.64526543	      0.93171178	     -0.20889574	      1.59463792	      2.31327806	      1.21434776	    -23.77253655	     16.94585817	      1.70215937	     31.98088392	     -3.41053540	     -4.91728616	    -22.20902055	      5.11203815	      4.67967622	     -7.15271107	     -1.73990441	      4.11944591
      4.01000000	     -8.23020200	     -1.45538619	     -2.88491477	     -0.65418194	      0.93132958	     -0.20675408	      1.81830858	      2.51362229	      0.82079954	    -23.18117114	     17.57786481	      1.34778741	     32.18120988	     -3.57321030	     -4.90461324	    -21.58169236	      5.83222727	      5.57498220	     -7.25170642	     -1.64924899	      4.04130335
      4.02000000	     -8.26419829	     -1.50346697	     -2.84048985	     -0.66300779	      0.93097739	     -0.20466605	      2.08624879	      2.72694153	      0.42333529	    -22.64462392	     18.13604313	      1.00159809	     32.35112175	     -3.74602967	     -4.97506936	    -20.90560854	      6.60219772	      6.36382191	     -7.32716409	     -1.54946916	      3.95421798
      4.03000000	     -8.30948981	     -1.55186452	     -2.76883382	     -0.67171954	      0.93063060	     -0.20265395	      2.38747897	      2.94226918	      0.01118533	    -22.14771299	     18.63763919	      0.68475762	     32.50308170	     -3.92268620	     -5.14284498	    -20.20415627	      7.36212400	      7.01133659	     -7.37363542	     -1.44744170	      3.84145914
      4.04000000	     -8.36400257	     -1.59971562	     -2.71291187	     -0.68031318	      0.93028493	     -0.20063680	      2.72024260	      3.16703274	     -0.32720092	    -21.69409024	     19.09661381	      0.35465918	     32.63745257	     -4.13304333	     -5.46500933	    -19.50539122	      8.07912249	      7.54966282	     -7.39508917	     -1.35233365	      3.75385938
      4.05000000	     -8.42644743	     -1.64511307	     -2.66881019	     -0.68876541	      0.92992545	     -0.19863207	      3.07806761	      3.39206342	     -0.63034733	    -21.28015057	     19.51954535	      0.01788986	     32.77040315	     -4.37154809	     -5.93309857	    -18.85153947	      8.68976128	      7.98456465	     -7.39094978	     -1.26867533	      3.68838572
      4.06000000	     -8.48461021	     -1.68896891	     -2.64046501	     -0.69704894	      0.92956443	     -0.19665292	      3.43781260	      3.61692278	     -0.88107001	    -20.89289607	     19.91190397	     -0.30960518	     32.90000688	     -4.63715819	     -6.52925762	    -18.28162313	      9.16440901	      8.27479170	     -7.37482511	     -1.19572083	      3.64581002
      4.07000000	     -8.53521698	     -1.73794014	     -2.61673040	     -0.70516482	      0.92921513	     -0.19472276	      3.79295677	      3.84884367	     -1.08217376	    -20.52979771	     20.25632430	     -0.69657701	     33.05527535	     -4.93263272	     -7.24247475	    -17.86582690	      9.46679882	      8.51996515	     -7.35721102	     -1.12217499	      3.58940536
      4.08000000	     -8.56154441	     -1.78494774	     -2.61000572	     -0.71307513	      0.92891855	     -0.19283624	      4.13468412	      4.07422055	     -1.24150596	    -20.21031493	     20.57279341	     -1.04043499	     33.21008648	     -5.24723937	     -8.00785574	    -17.62058063	      9.62153142	      8.60056546	     -7.35457937	     -1.06350808	      3.56429942
      4.09000000	     -8.54269111	     -1.84410169	     -2.60491160	     -0.72079583	      0.92872613	     -0.19102971	      4.45320352	      4.30660719	     -1.35309302	    -19.95965967	     20.84214158	     -1.35377599	     33.36946647	     -5.58719554	     -8.78564874	    -17.60676666	      9.64812639	      8.57363093	     -7.40121240	     -0.99642888	      3.50583295
      4.10000000	     -8.53559476	     -1.90996698	     -2.59851469	     -0.72826798	      0.92861385	     -0.18929915	      4.76749411	      4.54903065	     -1.38578802	    -19.70111628	     21.01532318	     -1.89111680	     33.57986158	     -5.93684676	     -9.47697887	    -17.82391139	      9.50686276	      8.44933296	     -7.41784469	     -0.93163959	      3.47559319
      4.11000000	     -8.44318488	     -1.99924432	     -2.55023393	     -0.73552002	      0.92873368	     -0.18773700	      5.03713675	      4.79617021	     -1.44220206	    -19.55139311	     21.11737925	     -2.47530231	     33.74338313	     -6.27885823	     -9.99149968	    -18.28087727	      9.28412943	      8.16139892	     -7.53687389	     -0.84083041	      3.36069869
      4.12000000	     -8.30323469	     -2.11094353	     -2.49905693	     -0.74248727	      0.92908384	     -0.18626115	      5.26314426	      5.05952645	     -1.42321909	    -19.44303561	     21.13770727	     -2.81959073	     33.88281509	     -6.63231171	    -10.32856730	    -18.97738808	      9.08475587	      7.84146228	     -7.69980432	     -0.73322306	      3.23999069
      4.13000000	     -8.13777307	     -2.21218457	     -2.40142484	     -0.74916325	      0.92964864	     -0.18496845	      5.48410745	      5.28761811	     -1.47483092	    -19.39429769	     21.09247551	     -3.29908215	     33.99977941	     -6.92350073	    -10.41569002	    -19.85680942	      8.79452703	      7.38491908	     -7.87656364	     -0.63964972	      3.08880626
      4.14000000	     -7.90616510	     -2.34195265	     -2.28018951	     -0.75553707	      0.93050886	     -0.18379393	      5.63932625	      5.53343612	     -1.49058838	    -19.38222815	     20.94796040	     -3.51128572	     34.03740190	     -7.20287085	    -10.27839477	    -20.89993345	      8.63236362	      7.06356607	     -8.11739010	     -0.51736548	      2.89861235
      4.15000000	     -7.67081109	     -2.44536799	     -2.11570687	     -0.76162887	      0.93155499	     -0.18279583	      5.80152551	      5.73147119	     -1.56105997	    -19.40876520	     20.74658028	     -3.75444031	     34.04317633	     -7.39531817	     -9.93101411	    -22.04996238	      8.44442781	      6.66704385	     -8.34091197	     -0.42369617	      2.66443549
      4.16000000	     -7.43723455	     -2.49588797	     -1.93580420	     -0.76744790	      0.93276108	     -0.18194028	      5.97198889	      5.85716038	     -1.65889925	    -19.46564704	     20.51219474	     -4.09306703	     34.00114111	     -7.49230236	     -9.46877379	    -23.26592520	      8.23094618	      6.14768816	     -8.53696937	     -0.39132958	      2.42029774
      4.17000000	     -7.16164251	     -2.54041251	     -1.73482776	     -0.77297521	      0.93417530	     -0.18118614	      6.05380765	      5.96799987	     -1.75618716	    -19.47097859	     20.22359026	     -4.17187347	     33.86529187	     -7.54802354	     -8.91063643	    -24.53851810	      8.18856552	      5.92197891	     -8.75874555	     -0.36905243	      2.16320181
      4.18000000	     -6.91291885	     -2.53369949	     -1.51171236	     -0.77829280	      0.93564130	     -0.18058137	      6.14959756	      6.01473160	     -1.87317908	    -19.47093659	     19.90377463	     -4.28757227	     33.69182013	     -7.50463382	     -8.26327782	    -25.81188811	      8.17284814	      5.62354488	     -8.92803008	     -0.39718906	      1.85718349
      4.19000000	     -6.69970871	     -2.47204508	     -1.29767976	     -0.78342622	      0.93710762	     -0.18004086	      6.25503847	      6.00415950	     -1.96241072	    -19.44070229	     19.58658475	     -4.56238497	     33.48663380	     -7.39049904	     -7.61432175	    -27.07635540	      8.11096869	      5.14355388	     -9.03700901	     -0.48912221	      1.55035119
      4.20000000	     -6.48103802	     -2.40412683	     -1.11768025	     -0.78834112	      0.93858457	     -0.17952320	      6.31192714	      5.98291191	     -2.04317743	    -19.36216391	     19.25016821	     -4.65806425	     33.21651653	     -7.28586809	     -7.02114285	    -28.35725824	      8.28309940	      4.90575796	     -9.13228843	     -0.58973391	      1.29969507
      4.21000000	     -6.28388291	     -2.32361471	     -0.94497697	     -0.79314243	      0.93999257	     -0.17904598	      6.37264980	      5.95045670	     -2.11361263	    -19.27069502	     18.94205751	     -4.89476656	     32.92436063	     -7.16725217	     -6.45421924	    -29.63426778	      8.35142220	      4.54837220	     -9.19780891	     -0.70312591	      1.03806652
      4.22000000	     -6.11234990	     -2.24010731	     -0.82036116	     -0.79777032	      0.94128511	     -0.17856369	      6.43396741	      5.91591419	     -2.14078747	    -19.15852890	     18.63869184	     -5.10832273	     32.59999745	     -7.07114582	     -5.95775645	    -30.90344823	      8.54552279	      4.21354597	     -9.21879588	     -0.81966625	      0.83720128
